RobotoSerifMicroCond-Super Italic 06fz.ufo
<glyph name="C" format="2">
  <advance width="662"/>
  <unicode hex="0043"/>
  <anchor x="336" y="741" name="top"/>
  <anchor x="336" y="0" name="bottom"/>
  <outline>
    <contour>
      <point x="441" y="645" type="curve" smooth="yes"/>
      <point x="501" y="645"/>
      <point x="521" y="586"/>
      <point x="525" y="461" type="curve"/>
      <point x="640" y="461" type="line"/>
      <point x="705" y="720" type="line"/>
      <point x="620" y="720" type="line"/>
      <point x="550" y="533" type="line"/>
      <point x="576" y="529" type="line"/>
      <point x="575" y="659"/>
      <point x="534" y="735"/>
      <point x="405" y="735" type="curve" smooth="yes"/>
      <point x="172" y="735"/>
      <point x="30" y="512"/>
      <point x="30" y="267" type="curve" smooth="yes"/>
      <point x="30" y="69"/>
      <point x="135" y="-25"/>
      <point x="312" y="-25" type="curve" smooth="yes"/>
      <point x="459" y="-25"/>
      <point x="536" y="60"/>
      <point x="602" y="203" type="curve"/>
      <point x="530" y="244" type="line"/>
      <point x="482" y="142"/>
      <point x="436" y="65"/>
      <point x="351" y="65" type="curve" smooth="yes"/>
      <point x="294" y="65"/>
      <point x="267" y="113"/>
      <point x="267" y="232" type="curve" smooth="yes"/>
      <point x="267" y="387"/>
      <point x="319" y="645"/>
    </contour>
  </outline>
</glyph>
<glyph name="D" format="2">
  <advance width="717"/>
  <unicode hex="0044"/>
  <anchor x="370" y="741" name="top"/>
  <anchor x="370" y="0" name="bottom"/>
  <outline>
    <contour>
      <point x="111" y="625" type="line"/>
      <point x="121" y="625" type="line" smooth="yes"/>
      <point x="145" y="625"/>
      <point x="152" y="620"/>
      <point x="144" y="589" type="curve" smooth="yes"/>
      <point x="28" y="121" type="line" smooth="yes"/>
      <point x="21" y="91"/>
      <point x="6" y="85"/>
      <point x="-14" y="85" type="curve" smooth="yes"/>
      <point x="-23" y="85" type="line"/>
      <point x="-45" y="0" type="line"/>
      <point x="335" y="0" type="line" smooth="yes"/>
      <point x="575" y="0"/>
      <point x="711" y="205"/>
      <point x="711" y="445" type="curve" smooth="yes"/>
      <point x="711" y="612"/>
      <point x="596" y="710"/>
      <point x="413" y="710" type="curve" smooth="yes"/>
      <point x="133" y="710" type="line"/>
    </contour>
    <contour>
      <point x="401" y="626" type="line" smooth="yes"/>
      <point x="453" y="626"/>
      <point x="475" y="587"/>
      <point x="475" y="504" type="curve" smooth="yes"/>
      <point x="475" y="342"/>
      <point x="422" y="84"/>
      <point x="298" y="84" type="curve" smooth="yes"/>
      <point x="246" y="84" type="line"/>
      <point x="382" y="626" type="line"/>
    </contour>
  </outline>
</glyph>
<glyph name="F" format="2">
  <advance width="598"/>
  <unicode hex="0046"/>
  <outline>
    <contour>
      <point x="-45" y="0" type="line"/>
      <point x="288" y="0" type="line"/>
      <point x="310" y="85" type="line"/>
      <point x="293" y="85" type="line" smooth="yes"/>
      <point x="268" y="85"/>
      <point x="248" y="88"/>
      <point x="250" y="95" type="curve" smooth="yes"/>
      <point x="382" y="624" type="line"/>
      <point x="454" y="624" type="line" smooth="yes"/>
      <point x="494" y="624"/>
      <point x="515" y="616"/>
      <point x="513" y="582" type="curve" smooth="yes"/>
      <point x="509" y="511" type="line"/>
      <point x="607" y="511" type="line"/>
      <point x="650" y="710" type="line"/>
      <point x="133" y="710" type="line"/>
      <point x="111" y="625" type="line"/>
      <point x="121" y="625" type="line" smooth="yes"/>
      <point x="145" y="625"/>
      <point x="152" y="620"/>
      <point x="144" y="589" type="curve" smooth="yes"/>
      <point x="28" y="121" type="line" smooth="yes"/>
      <point x="21" y="91"/>
      <point x="5" y="85"/>
      <point x="-14" y="85" type="curve" smooth="yes"/>
      <point x="-23" y="85" type="line"/>
    </contour>
    <contour>
      <point x="309" y="391" type="curve"/>
      <point x="289" y="310" type="line"/>
      <point x="353" y="304"/>
      <point x="410" y="299"/>
      <point x="471" y="294" type="curve"/>
      <point x="500" y="410" type="line"/>
      <point x="436" y="403"/>
      <point x="374" y="397"/>
    </contour>
  </outline>
</glyph>
<glyph name="J" format="2">
  <advance width="617"/>
  <unicode hex="004A"/>
  <anchor x="425" y="741" name="top"/>
  <outline>
    <contour>
      <point x="376" y="589" type="curve" smooth="yes"/>
      <point x="283" y="216" type="line" smooth="yes"/>
      <point x="255" y="101"/>
      <point x="237" y="63"/>
      <point x="187" y="63" type="curve" smooth="yes"/>
      <point x="150" y="63"/>
      <point x="123" y="93"/>
      <point x="116" y="117" type="curve"/>
      <point x="67" y="158"/>
      <point x="91" y="66"/>
      <point x="127" y="48" type="curve"/>
      <point x="179" y="259" type="line"/>
      <point x="14" y="259" type="line"/>
      <point x="-35" y="58" type="line"/>
      <point x="16" y="15"/>
      <point x="101" y="-25"/>
      <point x="224" y="-25" type="curve" smooth="yes"/>
      <point x="371" y="-25"/>
      <point x="468" y="41"/>
      <point x="508" y="201" type="curve" smooth="yes"/>
      <point x="604" y="589" type="line" smooth="yes"/>
      <point x="611" y="618"/>
      <point x="630" y="625"/>
      <point x="650" y="625" type="curve" smooth="yes"/>
      <point x="663" y="625" type="line"/>
      <point x="685" y="710" type="line"/>
      <point x="338" y="710" type="line"/>
      <point x="316" y="625" type="line"/>
      <point x="342" y="625" type="line" smooth="yes"/>
      <point x="371" y="625"/>
      <point x="383" y="618"/>
    </contour>
  </outline>
</glyph>
<glyph name="M" format="2">
  <advance width="893"/>
  <unicode hex="004D"/>
  <anchor x="431.0" y="0" name="bottom"/>
  <outline>
    <contour>
      <point x="-45" y="0" type="line"/>
      <point x="120" y="0" type="line"/>
      <point x="142" y="85" type="line"/>
      <point x="134" y="85" type="line" smooth="yes"/>
      <point x="125" y="85"/>
      <point x="107" y="88"/>
      <point x="109" y="95" type="curve" smooth="yes"/>
      <point x="259" y="695" type="line"/>
      <point x="245" y="688" type="line"/>
      <point x="245" y="-7" type="line"/>
      <point x="341" y="-7" type="line"/>
      <point x="698" y="690" type="line"/>
      <point x="684" y="685" type="line"/>
      <point x="537" y="95" type="line" smooth="yes"/>
      <point x="535" y="88"/>
      <point x="512" y="85"/>
      <point x="503" y="85" type="curve" smooth="yes"/>
      <point x="497" y="85" type="line"/>
      <point x="475" y="0" type="line"/>
      <point x="783" y="0" type="line"/>
      <point x="805" y="85" type="line"/>
      <point x="795" y="85" type="line" smooth="yes"/>
      <point x="778" y="85"/>
      <point x="767" y="92"/>
      <point x="774" y="121" type="curve" smooth="yes"/>
      <point x="890" y="589" type="line" smooth="yes"/>
      <point x="897" y="618"/>
      <point x="912" y="625"/>
      <point x="930" y="625" type="curve" smooth="yes"/>
      <point x="939" y="625" type="line"/>
      <point x="961" y="710" type="line"/>
      <point x="617" y="710" type="line"/>
      <point x="405" y="269" type="line"/>
      <point x="459" y="231" type="line"/>
      <point x="463" y="710" type="line"/>
      <point x="133" y="710" type="line"/>
      <point x="111" y="625" type="line"/>
      <point x="120" y="625" type="line" smooth="yes"/>
      <point x="139" y="625"/>
      <point x="151" y="618"/>
      <point x="142" y="589" type="curve" smooth="yes"/>
      <point x="26" y="121" type="line" smooth="yes"/>
      <point x="18" y="92"/>
      <point x="4" y="85"/>
      <point x="-14" y="85" type="curve" smooth="yes"/>
      <point x="-23" y="85" type="line"/>
    </contour>
  </outline>
</glyph>
<glyph name="T" format="2">
  <advance width="680"/>
  <unicode hex="0054"/>
  <anchor x="320" y="741" name="top"/>
  <anchor x="320" y="0" name="bottom"/>
  <outline>
    <contour>
      <point x="169" y="121" type="line" smooth="yes"/>
      <point x="162" y="92"/>
      <point x="143" y="85"/>
      <point x="122" y="85" type="curve" smooth="yes"/>
      <point x="108" y="85" type="line"/>
      <point x="86" y="0" type="line"/>
      <point x="418" y="0" type="line"/>
      <point x="440" y="85" type="line"/>
      <point x="424" y="85" type="line" smooth="yes"/>
      <point x="405" y="85"/>
      <point x="390" y="91"/>
      <point x="397" y="121" type="curve" smooth="yes"/>
      <point x="522" y="624" type="line"/>
      <point x="527" y="624" type="line" smooth="yes"/>
      <point x="596" y="624"/>
      <point x="602" y="607"/>
      <point x="596" y="571" type="curve" smooth="yes"/>
      <point x="571" y="427" type="line"/>
      <point x="674" y="427" type="line"/>
      <point x="745" y="710" type="line"/>
      <point x="114" y="710" type="line"/>
      <point x="43" y="427" type="line"/>
      <point x="146" y="427" type="line"/>
      <point x="196" y="571" type="line" smooth="yes"/>
      <point x="209" y="608"/>
      <point x="226" y="624"/>
      <point x="291" y="624" type="curve" smooth="yes"/>
      <point x="294" y="624" type="line"/>
    </contour>
  </outline>
</glyph>
<glyph name="V" format="2">
  <advance width="633"/>
  <unicode hex="0056"/>
  <outline>
    <contour>
      <point x="305" y="58" type="line"/>
      <point x="344" y="614" type="line"/>
      <point x="346" y="621"/>
      <point x="355" y="625"/>
      <point x="390" y="625" type="curve" smooth="yes"/>
      <point x="398" y="625" type="line"/>
      <point x="419" y="710" type="line"/>
      <point x="99" y="710" type="line"/>
      <point x="78" y="625" type="line"/>
      <point x="82" y="625" type="line" smooth="yes"/>
      <point x="104" y="625"/>
      <point x="115" y="612"/>
      <point x="113" y="561" type="curve" smooth="yes"/>
      <point x="86" y="-4" type="line"/>
      <point x="344" y="-4" type="line"/>
      <point x="618" y="561" type="line" smooth="yes"/>
      <point x="642" y="612"/>
      <point x="663" y="625"/>
      <point x="685" y="625" type="curve" smooth="yes"/>
      <point x="690" y="625" type="line"/>
      <point x="711" y="710" type="line"/>
      <point x="517" y="710" type="line"/>
      <point x="496" y="625" type="line"/>
      <point x="502" y="625" type="line" smooth="yes"/>
      <point x="536" y="625"/>
      <point x="540" y="615"/>
      <point x="537" y="602" type="curve"/>
      <point x="283" y="59" type="line"/>
    </contour>
  </outline>
</glyph>
<glyph name="j" format="2">
  <advance width="393"/>
  <unicode hex="006A"/>
  <outline>
    <contour>
      <point x="15" y="-52" type="line" smooth="yes"/>
      <point x="-3" y="-124"/>
      <point x="-22" y="-153"/>
      <point x="-67" y="-153" type="curve" smooth="yes"/>
      <point x="-99" y="-153"/>
      <point x="-133" y="-139"/>
      <point x="-150" y="-129" type="curve"/>
      <point x="-174" y="-223" type="line"/>
      <point x="-158" y="-231"/>
      <point x="-107" y="-250"/>
      <point x="-22" y="-250" type="curve" smooth="yes"/>
      <point x="109" y="-250"/>
      <point x="197" y="-199"/>
      <point x="231" y="-63" type="curve" smooth="yes"/>
      <point x="389" y="569" type="line"/>
      <point x="136" y="569" type="line"/>
      <point x="116" y="489" type="line"/>
      <point x="124" y="487" type="line" smooth="yes"/>
      <point x="141" y="483"/>
      <point x="148" y="477"/>
      <point x="143" y="457" type="curve" smooth="yes"/>
    </contour>
    <contour>
      <point x="297" y="636" type="curve" smooth="yes"/>
      <point x="381" y="636"/>
      <point x="415" y="678"/>
      <point x="415" y="735" type="curve" smooth="yes"/>
      <point x="415" y="792"/>
      <point x="377" y="817"/>
      <point x="309" y="817" type="curve" smooth="yes"/>
      <point x="224" y="817"/>
      <point x="190" y="776"/>
      <point x="190" y="717" type="curve" smooth="yes"/>
      <point x="190" y="661"/>
      <point x="228" y="636"/>
    </contour>
  </outline>
</glyph>
<glyph name="o" format="2">
  <advance width="615"/>
  <unicode hex="006F"/>
  <anchor x="308" y="569" name="top"/>
  <anchor x="421" y="0" name="right"/>
  <anchor x="298" y="0" name="bottom"/>
  <outline>
    <contour>
      <point x="111" y="580"/>
      <point x="25" y="387"/>
      <point x="25" y="203" type="curve" smooth="yes"/>
      <point x="25" y="64"/>
      <point x="120" y="-14"/>
      <point x="262" y="-14" type="curve"/>
      <point x="504" y="-14"/>
      <point x="590" y="179"/>
      <point x="590" y="363" type="curve" smooth="yes"/>
      <point x="590" y="501"/>
      <point x="494" y="580"/>
      <point x="352" y="580" type="curve"/>
    </contour>
    <contour>
      <point x="270" y="74" type="curve" smooth="yes"/>
      <point x="234" y="74"/>
      <point x="225" y="98"/>
      <point x="225" y="138" type="curve" smooth="yes"/>
      <point x="225" y="163"/>
      <point x="237" y="246"/>
      <point x="250" y="305" type="curve" smooth="yes"/>
      <point x="274" y="413"/>
      <point x="296" y="492"/>
      <point x="345" y="492" type="curve" smooth="yes"/>
      <point x="381" y="492"/>
      <point x="390" y="468"/>
      <point x="390" y="428" type="curve" smooth="yes"/>
      <point x="390" y="404"/>
      <point x="378" y="320"/>
      <point x="365" y="261" type="curve" smooth="yes"/>
      <point x="342" y="153"/>
      <point x="319" y="74"/>
    </contour>
  </outline>
</glyph>
<glyph name="asterisk" format="2">
  <advance width="581"/>
  <outline>
    <contour>
      <point x="87" y="628" type="curve"/>
      <point x="187" y="746" type="line"/>
      <point x="252.52215513195142" y="694.3764838354322"/>
      <point x="255.3364353076847" y="643.7063837314752"/>
      <point x="310" y="596" type="curve"/>
      <point x="265" y="546" type="line"/>
      <point x="204.2274978663901" y="587.8433621247806"/>
      <point x="151.6620133233993" y="578.2599897512313"/>
    </contour>
    <contour>
      <point x="107" y="393" type="curve"/>
      <point x="62" y="523" type="line"/>
      <point x="142.81918666389316" y="555.9263353075121"/>
      <point x="199.10277497229805" y="537.038887827356"/>
      <point x="273" y="565" type="curve"/>
      <point x="291" y="507" type="line"/>
      <point x="219.08088893577855" y="473.0381975530065"/>
      <point x="187.83307434206267" y="425.93199325047"/>
    </contour>
    <contour>
      <point x="331" y="305" type="curve"/>
      <point x="184" y="305" type="line"/>
      <point x="206.021557216028" y="408.1009269659492"/>
      <point x="253.9636032866403" y="441.87095710717927"/>
      <point x="276" y="520" type="curve"/>
      <point x="343" y="513" type="line"/>
      <point x="326.02113726973334" y="434.0982261358197"/>
      <point x="352.91646344917854" y="389.6772451445534"/>
    </contour>
    <contour>
      <point x="305" y="794" type="curve"/>
      <point x="451" y="794" type="line"/>
      <point x="429.0769199137941" y="689.3671177703807"/>
      <point x="380.9430735723846" y="656.8069451585218"/>
      <point x="358" y="579" type="curve"/>
      <point x="292" y="587" type="line"/>
      <point x="309.96987835021406" y="664.8694728509275"/>
      <point x="282.08251178047" y="707.3121097782995"/>
    </contour>
    <contour>
      <point x="453" y="352" type="line"/>
      <point x="387.4916606945687" y="400.6349791813051"/>
      <point x="377.7233311832961" y="455.25617483028134"/>
      <point x="324" y="505" type="curve"/>
      <point x="367" y="556" type="line"/>
      <point x="429.2204142756229" y="511.843576965687"/>
      <point x="484.8226635849085" y="520.1364126269934"/>
      <point x="550" y="470" type="curve"/>
    </contour>
    <contour>
      <point x="577" y="581" type="line"/>
      <point x="493.0753621891094" y="549.028709405375"/>
      <point x="435.9472138441439" y="560.9802931684804"/>
      <point x="361" y="533" type="curve"/>
      <point x="344" y="591" type="line"/>
      <point x="416.92067085938487" y="625.9619654805269"/>
      <point x="447.1718338085121" y="675.0703897528845"/>
      <point x="530" y="709" type="curve"/>
    </contour>
  </outline>
</glyph>
<glyph name="at.uc" format="2">
  <advance width="839"/>
  <outline>
    <contour>
      <point x="378" y="-53" type="curve" smooth="yes"/>
      <point x="464" y="-53"/>
      <point x="547" y="-32"/>
      <point x="602" y="-11" type="curve"/>
      <point x="585" y="63" type="line"/>
      <point x="542" y="48"/>
      <point x="466" y="25"/>
      <point x="382" y="25" type="curve" smooth="yes"/>
      <point x="211" y="25"/>
      <point x="126" y="125"/>
      <point x="126" y="280" type="curve" smooth="yes"/>
      <point x="126" y="526"/>
      <point x="283" y="690"/>
      <point x="488" y="690" type="curve" smooth="yes"/>
      <point x="657" y="690"/>
      <point x="725" y="605"/>
      <point x="725" y="475" type="curve" smooth="yes"/>
      <point x="725" y="344"/>
      <point x="692" y="222"/>
      <point x="623" y="222" type="curve" smooth="yes"/>
      <point x="595" y="222"/>
      <point x="582" y="236"/>
      <point x="582" y="267" type="curve" smooth="yes"/>
      <point x="582" y="283"/>
      <point x="585" y="302"/>
      <point x="598" y="335" type="curve"/>
      <point x="688" y="568" type="line"/>
      <point x="578" y="568" type="line"/>
      <point x="522" y="491" type="line"/>
      <point x="504" y="481" type="line"/>
      <point x="415" y="251" type="line"/>
      <point x="435" y="238" type="line"/>
      <point x="470" y="184"/>
      <point x="514" y="155"/>
      <point x="592" y="155" type="curve" smooth="yes"/>
      <point x="734" y="155"/>
      <point x="824" y="287"/>
      <point x="824" y="475" type="curve" smooth="yes"/>
      <point x="824" y="648"/>
      <point x="722" y="769"/>
      <point x="488" y="769" type="curve"/>
      <point x="229" y="769"/>
      <point x="24" y="563"/>
      <point x="24" y="280" type="curve" smooth="yes"/>
      <point x="24" y="78"/>
      <point x="140" y="-53"/>
    </contour>
    <contour>
      <point x="322" y="149" type="curve" smooth="yes"/>
      <point x="385" y="149"/>
      <point x="407" y="174"/>
      <point x="478" y="278" type="curve"/>
      <point x="449" y="307" type="line"/>
      <point x="406" y="236"/>
      <point x="393" y="209"/>
      <point x="368" y="209" type="curve" smooth="yes"/>
      <point x="353" y="209"/>
      <point x="348" y="230"/>
      <point x="348" y="265" type="curve" smooth="yes"/>
      <point x="348" y="340"/>
      <point x="398" y="515"/>
      <point x="456" y="515" type="curve" smooth="yes"/>
      <point x="484" y="515"/>
      <point x="496" y="492"/>
      <point x="497" y="436" type="curve"/>
      <point x="534" y="456" type="line"/>
      <point x="531" y="529"/>
      <point x="505" y="574"/>
      <point x="422" y="574" type="curve" smooth="yes"/>
      <point x="296" y="574"/>
      <point x="198" y="430"/>
      <point x="198" y="287" type="curve" smooth="yes"/>
      <point x="198" y="203"/>
      <point x="238" y="149"/>
    </contour>
  </outline>
</glyph>
<glyph name="backslash.uc" format="2">
  <advance width="570"/>
  <outline>
    <contour>
      <point x="220" y="760" type="line"/>
      <point x="471" y="-60" type="line"/>
      <point x="351" y="-60" type="line"/>
      <point x="98" y="760" type="line"/>
    </contour>
  </outline>
</glyph>
<glyph name="f.short" format="2">
  <advance width="447"/>
  <outline>
    <contour>
      <point x="75" y="569" type="line"/>
      <point x="55" y="485" type="line"/>
      <point x="454" y="485" type="line"/>
      <point x="474" y="569" type="line"/>
    </contour>
    <contour>
      <point x="183" y="-241" type="line"/>
      <point x="382" y="623" type="line" smooth="yes"/>
      <point x="395.66616076141463" y="682.334486923931"/>
      <point x="411.01492537313436" y="698.0"/>
      <point x="454" y="698" type="curve" smooth="yes"/>
      <point x="471.0208333333333" y="698.0"/>
      <point x="489.6590948181516" y="692.6704525909242"/>
      <point x="497" y="689" type="curve"/>
      <point x="521" y="772" type="line"/>
      <point x="497" y="779"/>
      <point x="458" y="787"/>
      <point x="407" y="787" type="curve" smooth="yes"/>
      <point x="267" y="787"/>
      <point x="179" y="740"/>
      <point x="159" y="619" type="curve" smooth="yes"/>
      <point x="17" y="-241" type="line"/>
    </contour>
  </outline>
</glyph>
<glyph name="f_f.short" format="2">
  <advance width="794"/>
  <outline>
    <contour>
      <point x="75" y="569" type="line"/>
      <point x="55" y="485" type="line"/>
      <point x="454" y="485" type="line"/>
      <point x="474" y="569" type="line"/>
    </contour>
    <contour>
      <point x="183" y="-241" type="line"/>
      <point x="379" y="608" type="line" smooth="yes"/>
      <point x="393" y="667"/>
      <point x="398" y="683"/>
      <point x="427" y="683" type="curve" smooth="yes"/>
      <point x="445" y="683"/>
      <point x="458" y="678"/>
      <point x="465" y="676" type="curve"/>
      <point x="487" y="756" type="line"/>
      <point x="459" y="764"/>
      <point x="405" y="772"/>
      <point x="362" y="772" type="curve" smooth="yes"/>
      <point x="242" y="772"/>
      <point x="177" y="731"/>
      <point x="155" y="597" type="curve" smooth="yes"/>
      <point x="17" y="-241" type="line"/>
    </contour>
    <contour>
      <point x="422" y="569" type="line"/>
      <point x="402" y="485" type="line"/>
      <point x="801" y="485" type="line"/>
      <point x="821" y="569" type="line"/>
    </contour>
    <contour>
      <point x="530" y="-241" type="line"/>
      <point x="729" y="623" type="line" smooth="yes"/>
      <point x="743" y="682"/>
      <point x="758" y="698"/>
      <point x="801" y="698" type="curve" smooth="yes"/>
      <point x="818" y="698"/>
      <point x="837" y="693"/>
      <point x="844" y="689" type="curve"/>
      <point x="868" y="772" type="line"/>
      <point x="844" y="779"/>
      <point x="805" y="787"/>
      <point x="754" y="787" type="curve" smooth="yes"/>
      <point x="614" y="787"/>
      <point x="526" y="740"/>
      <point x="506" y="619" type="curve" smooth="yes"/>
      <point x="364" y="-241" type="line"/>
    </contour>
  </outline>
</glyph>
<glyph name="f_f_k.alt" format="2">
  <advance width="1378"/>
  <outline>
    <contour>
      <point x="423" y="569" type="line"/>
      <point x="403" y="485" type="line"/>
      <point x="784" y="485" type="line"/>
      <point x="805" y="569" type="line"/>
    </contour>
    <contour>
      <point x="813" y="698" type="curve" smooth="yes"/>
      <point x="871" y="698"/>
      <point x="902" y="685"/>
      <point x="916" y="679" type="curve"/>
      <point x="949" y="730" type="line"/>
      <point x="908" y="752"/>
      <point x="833" y="785"/>
      <point x="758" y="785" type="curve" smooth="yes"/>
      <point x="594" y="785"/>
      <point x="526" y="738"/>
      <point x="504" y="608" type="curve" smooth="yes"/>
      <point x="364" y="-241" type="line"/>
      <point x="530" y="-241" type="line"/>
      <point x="728" y="621" type="line" smooth="yes"/>
      <point x="741" y="676"/>
      <point x="758" y="698"/>
    </contour>
    <contour>
      <point x="712" y="0" type="line"/>
      <point x="926" y="0" type="line"/>
      <point x="1121" y="780" type="line"/>
      <point x="772" y="780" type="line"/>
      <point x="889" y="708" type="line"/>
    </contour>
    <contour>
      <point x="1247" y="118" type="line" smooth="yes"/>
      <point x="1251" y="100"/>
      <point x="1260" y="96"/>
      <point x="1289" y="96" type="curve" smooth="yes"/>
      <point x="1297" y="96"/>
      <point x="1304" y="96"/>
      <point x="1312" y="96" type="curve"/>
      <point x="1290" y="0" type="line"/>
      <point x="1236" y="0"/>
      <point x="1183" y="0"/>
      <point x="1129" y="0" type="curve" smooth="yes"/>
      <point x="1078" y="0"/>
      <point x="1064" y="11"/>
      <point x="1052" y="59" type="curve"/>
      <point x="1011" y="293" type="line"/>
      <point x="1015" y="309" type="line"/>
      <point x="1082" y="399"/>
      <point x="1141" y="479"/>
      <point x="1205" y="565" type="curve"/>
      <point x="1418" y="565" type="line"/>
      <point x="1418" y="550" type="line"/>
      <point x="1301" y="463"/>
      <point x="1208" y="402"/>
      <point x="1088" y="313" type="curve"/>
      <point x="1186" y="408" type="line"/>
    </contour>
    <contour>
      <point x="75" y="569" type="line"/>
      <point x="55" y="485" type="line"/>
      <point x="454" y="485" type="line"/>
      <point x="474" y="569" type="line"/>
    </contour>
    <contour>
      <point x="445" y="772" type="curve" smooth="yes"/>
      <point x="274" y="772"/>
      <point x="178" y="739"/>
      <point x="153" y="587" type="curve" smooth="yes"/>
      <point x="17" y="-241" type="line"/>
      <point x="183" y="-241" type="line"/>
      <point x="377" y="602" type="line" smooth="yes"/>
      <point x="393" y="673"/>
      <point x="408" y="700"/>
      <point x="470" y="700" type="curve" smooth="yes"/>
      <point x="516" y="700"/>
      <point x="549" y="682"/>
      <point x="578" y="657" type="curve"/>
      <point x="568" y="694"/>
      <point x="566" y="713"/>
      <point x="522" y="713" type="curve"/>
      <point x="504" y="604" type="line"/>
      <point x="640" y="604" type="line"/>
      <point x="681" y="721" type="line"/>
      <point x="641" y="740"/>
      <point x="561" y="772"/>
    </contour>
  </outline>
</glyph>
<glyph name="fi" format="2">
  <advance width="729"/>
  <outline>
    <contour>
      <point x="183" y="-241" type="line"/>
      <point x="382" y="623" type="line" smooth="yes"/>
      <point x="396" y="682"/>
      <point x="401" y="698"/>
      <point x="430" y="698" type="curve" smooth="yes"/>
      <point x="448" y="698"/>
      <point x="461" y="693"/>
      <point x="468" y="691" type="curve"/>
      <point x="490" y="771" type="line"/>
      <point x="462" y="779"/>
      <point x="408" y="787"/>
      <point x="365" y="787" type="curve" smooth="yes"/>
      <point x="245" y="787"/>
      <point x="180" y="744"/>
      <point x="159" y="619" type="curve" smooth="yes"/>
      <point x="17" y="-241" type="line"/>
    </contour>
    <contour>
      <point x="473" y="457" type="curve" smooth="yes"/>
      <point x="420" y="247" type="line" smooth="yes"/>
      <point x="398" y="158"/>
      <point x="387" y="123"/>
      <point x="387" y="93" type="curve" smooth="yes"/>
      <point x="387" y="33"/>
      <point x="429" y="0"/>
      <point x="500" y="0" type="curve" smooth="yes"/>
      <point x="544" y="0"/>
      <point x="589" y="0"/>
      <point x="632" y="0" type="curve"/>
      <point x="654" y="96" type="line"/>
      <point x="648" y="96"/>
      <point x="642" y="96"/>
      <point x="635" y="96" type="curve"/>
      <point x="615" y="96"/>
      <point x="605" y="103"/>
      <point x="605" y="120" type="curve" smooth="yes"/>
      <point x="605" y="134"/>
      <point x="614" y="160"/>
      <point x="637" y="251" type="curve" smooth="yes"/>
      <point x="716" y="569" type="line"/>
      <point x="75" y="569" type="line"/>
      <point x="55" y="485" type="line"/>
      <point x="432" y="485" type="line" smooth="yes"/>
      <point x="461" y="485"/>
      <point x="477" y="471"/>
    </contour>
    <contour>
      <point x="624" y="636" type="curve" smooth="yes"/>
      <point x="708" y="636"/>
      <point x="742" y="678"/>
      <point x="742" y="735" type="curve" smooth="yes"/>
      <point x="742" y="792"/>
      <point x="704" y="817"/>
      <point x="636" y="817" type="curve" smooth="yes"/>
      <point x="551" y="817"/>
      <point x="517" y="776"/>
      <point x="517" y="717" type="curve" smooth="yes"/>
      <point x="517" y="661"/>
      <point x="555" y="636"/>
    </contour>
  </outline>
</glyph>
<glyph name="five.midprop" format="2">
  <advance width="507"/>
  <outline>
    <contour>
      <point x="184" y="-58" type="curve" smooth="yes"/>
      <point x="364" y="-58"/>
      <point x="466" y="59"/>
      <point x="466" y="240" type="curve" smooth="yes"/>
      <point x="466" y="360"/>
      <point x="409" y="426"/>
      <point x="300" y="426" type="curve" smooth="yes"/>
      <point x="209" y="426"/>
      <point x="164" y="386"/>
      <point x="128" y="322" type="curve"/>
      <point x="136" y="316" type="line"/>
      <point x="222" y="659" type="line"/>
      <point x="181" y="545" type="line"/>
      <point x="473" y="545" type="line"/>
      <point x="520" y="679" type="line"/>
      <point x="140" y="679" type="line"/>
      <point x="35" y="261" type="line"/>
      <point x="125" y="261" type="line"/>
      <point x="152" y="311"/>
      <point x="176" y="339"/>
      <point x="212" y="339" type="curve" smooth="yes"/>
      <point x="249" y="339"/>
      <point x="263" y="307"/>
      <point x="263" y="245" type="curve" smooth="yes"/>
      <point x="263" y="163"/>
      <point x="245" y="28"/>
      <point x="159" y="28" type="curve" smooth="yes"/>
      <point x="96" y="28"/>
      <point x="79" y="73"/>
      <point x="63" y="133" type="curve"/>
      <point x="-35" y="107" type="line"/>
      <point x="-12" y="3"/>
      <point x="47" y="-58"/>
    </contour>
  </outline>
</glyph>
<glyph name="florin.proportional" format="2">
  <advance width="542"/>
  <outline>
    <contour>
      <point x="152" y="565" type="line"/>
      <point x="122" y="486" type="line"/>
      <point x="492" y="486" type="line"/>
      <point x="522" y="565" type="line"/>
    </contour>
    <contour>
      <point x="211" y="-40" type="curve" smooth="yes"/>
      <point x="441" y="631" type="line" smooth="yes"/>
      <point x="459" y="684"/>
      <point x="466" y="706"/>
      <point x="513" y="706" type="curve" smooth="yes"/>
      <point x="545" y="706"/>
      <point x="569" y="696"/>
      <point x="587" y="690" type="curve"/>
      <point x="609" y="764" type="line"/>
      <point x="588" y="773"/>
      <point x="545" y="790"/>
      <point x="476" y="790" type="curve"/>
      <point x="346" y="790"/>
      <point x="289" y="754"/>
      <point x="258" y="664" type="curve" smooth="yes"/>
      <point x="-1" y="-92" type="line" smooth="yes"/>
      <point x="-20" y="-148"/>
      <point x="-28" y="-168"/>
      <point x="-59" y="-168" type="curve" smooth="yes"/>
      <point x="-76" y="-168"/>
      <point x="-88" y="-162"/>
      <point x="-105" y="-155" type="curve"/>
      <point x="-128" y="-230" type="line"/>
      <point x="-111" y="-237"/>
      <point x="-80" y="-250"/>
      <point x="-28" y="-250" type="curve" smooth="yes"/>
      <point x="94" y="-250"/>
      <point x="156" y="-201"/>
    </contour>
  </outline>
</glyph>
<glyph name="nine.midprop" format="2">
  <advance width="575"/>
  <outline>
    <contour>
      <point x="350" y="693" type="curve" smooth="yes"/>
      <point x="495" y="693"/>
      <point x="563" y="620"/>
      <point x="563" y="470" type="curve" smooth="yes"/>
      <point x="563" y="220"/>
      <point x="443" y="-57"/>
      <point x="-18" y="-64" type="curve"/>
      <point x="-8" y="24" type="line"/>
      <point x="204" y="39"/>
      <point x="296" y="96"/>
      <point x="354" y="346" type="curve" smooth="yes"/>
      <point x="377" y="443"/>
      <point x="385" y="520"/>
      <point x="385" y="558" type="curve" smooth="yes"/>
      <point x="385" y="598"/>
      <point x="375" y="615"/>
      <point x="349" y="615" type="curve" smooth="yes"/>
      <point x="311" y="615"/>
      <point x="299" y="577"/>
      <point x="272" y="454" type="curve" smooth="yes"/>
      <point x="261" y="406"/>
      <point x="256" y="374"/>
      <point x="256" y="349" type="curve" smooth="yes"/>
      <point x="256" y="312"/>
      <point x="271" y="298"/>
      <point x="285" y="298" type="curve" smooth="yes"/>
      <point x="315" y="298"/>
      <point x="333" y="327"/>
      <point x="379" y="392" type="curve"/>
      <point x="384" y="358" type="line"/>
      <point x="335" y="283"/>
      <point x="284" y="219"/>
      <point x="196" y="219" type="curve" smooth="yes"/>
      <point x="112" y="219"/>
      <point x="63" y="272"/>
      <point x="63" y="359" type="curve" smooth="yes"/>
      <point x="63" y="523"/>
      <point x="138" y="693"/>
    </contour>
  </outline>
</glyph>
<glyph name="one.linprop" format="2">
  <advance width="459"/>
  <outline>
    <contour>
      <point x="298" y="119" type="curve" smooth="yes"/>
      <point x="446" y="710" type="line"/>
      <point x="265" y="710" type="line"/>
      <point x="221" y="664"/>
      <point x="191" y="624"/>
      <point x="101" y="623" type="curve"/>
      <point x="72" y="508" type="line"/>
      <point x="149" y="507"/>
      <point x="185" y="533"/>
      <point x="234" y="637" type="curve"/>
      <point x="216" y="630" type="line"/>
      <point x="88" y="119" type="line" smooth="yes"/>
      <point x="78" y="81"/>
      <point x="58" y="73"/>
      <point x="24" y="73" type="curve" smooth="yes"/>
      <point x="-13" y="73" type="line"/>
      <point x="-32" y="0" type="line"/>
      <point x="335" y="0" type="line"/>
      <point x="354" y="73" type="line"/>
      <point x="334" y="73" type="line" smooth="yes"/>
      <point x="309" y="73"/>
      <point x="289" y="81"/>
    </contour>
  </outline>
</glyph>
<glyph name="one.oldprop" format="2">
  <advance width="437"/>
  <outline>
    <contour>
      <point x="307" y="119" type="curve" smooth="yes"/>
      <point x="437" y="639" type="line"/>
      <point x="255" y="639" type="line"/>
      <point x="211" y="594"/>
      <point x="180" y="553"/>
      <point x="89" y="552" type="curve"/>
      <point x="60" y="437" type="line"/>
      <point x="137" y="436"/>
      <point x="172" y="463"/>
      <point x="221" y="566" type="curve"/>
      <point x="207" y="559" type="line"/>
      <point x="97" y="119" type="line" smooth="yes"/>
      <point x="87" y="81"/>
      <point x="68" y="73"/>
      <point x="35" y="73" type="curve" smooth="yes"/>
      <point x="-2" y="73" type="line"/>
      <point x="-21" y="0" type="line"/>
      <point x="351" y="0" type="line"/>
      <point x="370" y="73" type="line"/>
      <point x="350" y="73" type="line" smooth="yes"/>
      <point x="320" y="73"/>
      <point x="297" y="81"/>
    </contour>
  </outline>
</glyph>
<glyph name="seven.oldprop" format="2">
  <advance width="469"/>
  <outline>
    <contour>
      <point x="247" y="502" type="line" smooth="yes"/>
      <point x="183" y="502"/>
      <point x="155" y="496"/>
      <point x="143" y="459" type="curve" smooth="yes"/>
      <point x="117" y="382" type="line"/>
      <point x="33" y="382" type="line"/>
      <point x="97" y="639" type="line"/>
      <point x="520" y="639" type="line"/>
      <point x="484" y="493" type="line"/>
      <point x="349" y="386"/>
      <point x="320" y="256"/>
      <point x="237" y="-77" type="curve"/>
      <point x="30" y="-77" type="line"/>
      <point x="119" y="235"/>
      <point x="314" y="452"/>
      <point x="425" y="511" type="curve"/>
      <point x="437" y="502" type="line"/>
    </contour>
  </outline>
</glyph>
<glyph name="zero.propslash" format="2">
  <advance width="591"/>
  <outline>
    <contour>
      <point x="234" y="-11" type="curve" smooth="yes"/>
      <point x="494" y="-11"/>
      <point x="574" y="280"/>
      <point x="574" y="466" type="curve" smooth="yes"/>
      <point x="574" y="610"/>
      <point x="485" y="690"/>
      <point x="357" y="690" type="curve"/>
      <point x="98" y="690"/>
      <point x="17" y="397"/>
      <point x="17" y="210" type="curve" smooth="yes"/>
      <point x="17" y="68"/>
      <point x="107" y="-11"/>
    </contour>
    <contour>
      <point x="235" y="71" type="curve" smooth="yes"/>
      <point x="203" y="71"/>
      <point x="192" y="87"/>
      <point x="192" y="128" type="curve" smooth="yes"/>
      <point x="192" y="166"/>
      <point x="202" y="235"/>
      <point x="231" y="355" type="curve"/>
      <point x="283" y="570"/>
      <point x="314" y="608"/>
      <point x="356" y="608" type="curve" smooth="yes"/>
      <point x="387" y="608"/>
      <point x="399" y="592"/>
      <point x="399" y="551" type="curve" smooth="yes"/>
      <point x="399" y="513"/>
      <point x="389" y="442"/>
      <point x="360" y="321" type="curve"/>
      <point x="309" y="109"/>
      <point x="276" y="71"/>
    </contour>
    <contour>
      <point x="98" y="131" type="line"/>
      <point x="504" y="467" type="line"/>
      <point x="496" y="551" type="line"/>
      <point x="87" y="212" type="line"/>
    </contour>
  </outline>
</glyph>
